SplineFontDB: 3.0
FontName: Boxy
FullName: Boxy Regular
FamilyName: Boxy
Weight: Book
Copyright: Copyright Chris Burgess 2015
Version: 1.0
ItalicAngle: 0
UnderlinePosition: 126
UnderlineWidth: 50
Ascent: 768
Descent: 256
sfntRevision: 0x00010000
LayerCount: 2
Layer: 0 1 "Back"  1
Layer: 1 1 "Fore"  0
XUID: [1021 572 990901585 11295349]
FSType: 4
OS2Version: 2
OS2_WeightWidthSlopeOnly: 0
OS2_UseTypoMetrics: 1
CreationTime: 1439576743
ModificationTime: 1444537691
PfmFamily: 81
TTFWeight: 400
TTFWidth: 5
LineGap: 0
VLineGap: 0
Panose: 0 0 4 0 0 0 0 0 0 0
OS2TypoAscent: 640
OS2TypoAOffset: 0
OS2TypoDescent: 0
OS2TypoDOffset: 0
OS2TypoLinegap: 0
OS2WinAscent: 768
OS2WinAOffset: 0
OS2WinDescent: 128
OS2WinDOffset: 0
HheadAscent: 768
HheadAOffset: 0
HheadDescent: -128
HheadDOffset: 0
OS2SubXSize: 512
OS2SubYSize: 512
OS2SubXOff: 0
OS2SubYOff: 0
OS2SupXSize: 512
OS2SupYSize: 512
OS2SupXOff: 0
OS2SupYOff: 512
OS2StrikeYSize: 51
OS2StrikeYPos: 204
OS2Vendor: 'FSTR'
OS2CodePages: 00000001.00000000
OS2UnicodeRanges: 80000001.00000000.00000000.00000000
MarkAttachClasses: 1
DEI: 91125
ShortTable: maxp 16
  1
  0
  73
  36
  9
  0
  0
  2
  0
  0
  0
  0
  0
  0
  0
  0
EndShort
LangName: 1033 "" "" "Regular" "FontStruct Boxy" "" "Version 1.0" "" "FontStruct is a trademark of FSI FontShop International GmbH" "http://fontstruct.com" "Chris Burgess" "+IBoAxAD6-Boxy+IBoAxAD5 was built with FontStruct+AAoA" "http://www.fontshop.com" "http://fontstruct.com/fontstructions/show/1156394" "Creative Commons Attribution Share Alike" "http://creativecommons.org/licenses/by-sa/3.0/" "" "" "" "" "Five big quacking zephyrs jolt my wax bed" 
Encoding: UnicodeBmp
UnicodeInterp: none
NameList: Adobe Glyph List
DisplaySize: -24
AntiAlias: 1
FitToEm: 1
WinInfo: 9112 34 17
BeginPrivate: 0
EndPrivate
TeXData: 1 0 0 261120 130560 87040 393216 1048576 87040 783286 444596 497025 792723 393216 433062 380633 303038 157286 324010 404750 52429 2506097 1059062 262144
BeginChars: 65539 127

StartChar: .notdef
Encoding: 65536 -1 0
Width: 127
Flags: W
LayerCount: 2
Fore
SplineSet
320 90 m 1,0,-1
 320 192 l 1,1,-1
 218 192 l 1,2,-1
 218 90 l 1,3,-1
 320 90 l 1,0,-1
421 209 m 1,4,-1
 421 311 l 1,5,-1
 218 311 l 1,6,-1
 218 209 l 1,7,-1
 421 209 l 1,4,-1
320 328 m 1,8,-1
 320 430 l 1,9,-1
 218 430 l 1,10,-1
 218 328 l 1,11,-1
 320 328 l 1,8,-1
421 447 m 1,12,-1
 421 548 l 1,13,-1
 320 548 l 2,14,15
 277 548 277 548 248 519 c 0,16,17
 218 488 218 488 218 447 c 1,18,-1
 421 447 l 1,12,-1
0 0 m 1,19,-1
 0 640 l 1,20,-1
 640 640 l 1,21,-1
 640 0 l 1,22,-1
 0 0 l 1,19,-1
EndSplineSet
Validated: 1
EndChar

StartChar: exclam
Encoding: 33 33 4
Width: 255
Flags: W
LayerCount: 2
Fore
SplineSet
0 0 m 1,0,-1
 0 128 l 1,1,-1
 128 128 l 1,2,-1
 128 0 l 1,3,-1
 0 0 l 1,0,-1
0 256 m 1,4,-1
 0 640 l 1,5,-1
 128 640 l 1,6,-1
 128 256 l 1,7,-1
 0 256 l 1,4,-1
EndSplineSet
Validated: 1
EndChar

StartChar: quotesingle
Encoding: 39 39 5
Width: 255
Flags: W
LayerCount: 2
Fore
SplineSet
0 512 m 1,0,-1
 0 768 l 1,1,-1
 128 768 l 1,2,-1
 128 512 l 1,3,-1
 0 512 l 1,0,-1
EndSplineSet
Validated: 1
EndChar

StartChar: comma
Encoding: 44 44 6
Width: 255
Flags: W
LayerCount: 2
Fore
SplineSet
0 -128 m 1,0,-1
 0 128 l 1,1,-1
 128 128 l 1,2,-1
 128 -128 l 1,3,-1
 0 -128 l 1,0,-1
EndSplineSet
Validated: 1
EndChar

StartChar: period
Encoding: 46 46 7
Width: 255
Flags: W
LayerCount: 2
Fore
SplineSet
0 0 m 5,0,-1
 0 128 l 5,1,-1
 128 128 l 5,2,-1
 128 0 l 5,3,-1
 0 0 l 5,0,-1
EndSplineSet
Validated: 1
EndChar

StartChar: zero
Encoding: 48 48 8
Width: 511
Flags: W
LayerCount: 2
Fore
SplineSet
256 128 m 1,0,-1
 256 512 l 1,1,-1
 128 512 l 1,2,-1
 128 128 l 1,3,-1
 256 128 l 1,0,-1
0 0 m 1,4,-1
 0 640 l 1,5,-1
 384 640 l 1,6,-1
 384 0 l 1,7,-1
 0 0 l 1,4,-1
EndSplineSet
Validated: 1
EndChar

StartChar: one
Encoding: 49 49 9
Width: 511
Flags: W
LayerCount: 2
Fore
SplineSet
0 0 m 1,0,-1
 0 128 l 1,1,-1
 128 128 l 1,2,-1
 128 512 l 1,3,-1
 0 512 l 1,4,-1
 0 640 l 1,5,-1
 256 640 l 1,6,-1
 256 128 l 1,7,-1
 384 128 l 1,8,-1
 384 0 l 1,9,-1
 0 0 l 1,0,-1
EndSplineSet
Validated: 1
EndChar

StartChar: two
Encoding: 50 50 10
Width: 639
Flags: W
LayerCount: 2
Fore
SplineSet
0 0 m 1,0,-1
 0 384 l 1,1,-1
 384 384 l 1,2,-1
 384 512 l 1,3,-1
 0 512 l 1,4,-1
 0 640 l 1,5,-1
 512 640 l 1,6,-1
 512 256 l 1,7,-1
 128 256 l 1,8,-1
 128 128 l 1,9,-1
 512 128 l 1,10,-1
 512 0 l 1,11,-1
 0 0 l 1,0,-1
EndSplineSet
Validated: 1
EndChar

StartChar: three
Encoding: 51 51 11
Width: 639
Flags: W
LayerCount: 2
Fore
SplineSet
0 0 m 1,0,-1
 0 128 l 1,1,-1
 384 128 l 1,2,-1
 384 256 l 1,3,-1
 128 256 l 1,4,-1
 128 384 l 1,5,-1
 384 384 l 1,6,-1
 384 512 l 1,7,-1
 0 512 l 1,8,-1
 0 640 l 1,9,-1
 512 640 l 1,10,-1
 512 0 l 1,11,-1
 0 0 l 1,0,-1
EndSplineSet
Validated: 1
EndChar

StartChar: four
Encoding: 52 52 12
Width: 639
Flags: W
LayerCount: 2
Fore
SplineSet
256 0 m 1,0,-1
 256 256 l 1,1,-1
 0 256 l 1,2,-1
 0 640 l 1,3,-1
 128 640 l 1,4,-1
 128 384 l 1,5,-1
 256 384 l 1,6,-1
 256 640 l 1,7,-1
 384 640 l 1,8,-1
 384 384 l 1,9,-1
 512 384 l 1,10,-1
 512 256 l 1,11,-1
 384 256 l 1,12,-1
 384 0 l 1,13,-1
 256 0 l 1,0,-1
EndSplineSet
Validated: 1
EndChar

StartChar: five
Encoding: 53 53 13
Width: 639
Flags: W
LayerCount: 2
Fore
SplineSet
0 0 m 1,0,-1
 0 128 l 1,1,-1
 384 128 l 1,2,-1
 384 0 l 1,3,-1
 0 0 l 1,0,-1
384 128 m 1,4,-1
 384 256 l 1,5,-1
 0 256 l 1,6,-1
 0 640 l 1,7,-1
 512 640 l 1,8,-1
 512 512 l 1,9,-1
 128 512 l 1,10,-1
 128 384 l 1,11,-1
 512 384 l 1,12,-1
 512 128 l 1,13,-1
 384 128 l 1,4,-1
EndSplineSet
Validated: 5
EndChar

StartChar: six
Encoding: 54 54 14
Width: 639
Flags: W
LayerCount: 2
Fore
SplineSet
384 128 m 1,0,-1
 384 256 l 1,1,-1
 128 256 l 1,2,-1
 128 128 l 1,3,-1
 384 128 l 1,0,-1
0 0 m 1,4,-1
 0 640 l 1,5,-1
 512 640 l 5,6,-1
 512 512 l 5,7,-1
 128 512 l 1,8,-1
 128 384 l 1,9,-1
 512 384 l 1,10,-1
 512 0 l 1,11,-1
 0 0 l 1,4,-1
EndSplineSet
Validated: 1
EndChar

StartChar: seven
Encoding: 55 55 15
Width: 639
Flags: W
LayerCount: 2
Fore
SplineSet
384 0 m 1,0,-1
 384 512 l 1,1,-1
 0 512 l 1,2,-1
 0 640 l 1,3,-1
 512 640 l 1,4,-1
 512 0 l 1,5,-1
 384 0 l 1,0,-1
EndSplineSet
Validated: 1
EndChar

StartChar: eight
Encoding: 56 56 16
Width: 639
Flags: W
LayerCount: 2
Fore
SplineSet
384 128 m 1,0,-1
 384 256 l 1,1,-1
 128 256 l 1,2,-1
 128 128 l 1,3,-1
 384 128 l 1,0,-1
384 384 m 1,4,-1
 384 512 l 1,5,-1
 128 512 l 1,6,-1
 128 384 l 1,7,-1
 384 384 l 1,4,-1
0 0 m 1,8,-1
 0 640 l 1,9,-1
 512 640 l 1,10,-1
 512 0 l 1,11,-1
 0 0 l 1,8,-1
EndSplineSet
Validated: 1
EndChar

StartChar: nine
Encoding: 57 57 17
Width: 639
Flags: W
LayerCount: 2
Fore
SplineSet
384 384 m 1,0,-1
 384 512 l 1,1,-1
 128 512 l 1,2,-1
 128 384 l 1,3,-1
 384 384 l 1,0,-1
384 0 m 1,4,-1
 384 256 l 1,5,-1
 0 256 l 1,6,-1
 0 640 l 1,7,-1
 512 640 l 1,8,-1
 512 0 l 1,9,-1
 384 0 l 1,4,-1
EndSplineSet
Validated: 1
EndChar

StartChar: question
Encoding: 63 63 18
Width: 767
Flags: W
LayerCount: 2
Fore
SplineSet
128 0 m 1,0,-1
 128 128 l 1,1,-1
 256 128 l 5,2,-1
 256 0 l 1,3,-1
 128 0 l 1,0,-1
128 256 m 1,4,-1
 128 384 l 1,5,-1
 384 384 l 1,6,-1
 384 512 l 1,7,-1
 0 512 l 1,8,-1
 0 640 l 1,9,-1
 512 640 l 1,10,-1
 512 256 l 1,11,-1
 128 256 l 1,4,-1
EndSplineSet
Validated: 1
EndChar

StartChar: A
Encoding: 65 65 19
Width: 639
Flags: W
LayerCount: 2
Fore
SplineSet
384 384 m 1,0,-1
 384 512 l 1,1,-1
 128 512 l 1,2,-1
 128 384 l 1,3,-1
 384 384 l 1,0,-1
0 0 m 1,4,-1
 0 640 l 1,5,-1
 512 640 l 1,6,-1
 512 0 l 1,7,-1
 384 0 l 1,8,-1
 384 256 l 1,9,-1
 128 256 l 1,10,-1
 128 0 l 1,11,-1
 0 0 l 1,4,-1
EndSplineSet
Validated: 1
EndChar

StartChar: B
Encoding: 66 66 20
Width: 639
Flags: W
LayerCount: 2
Fore
SplineSet
384 128 m 1,0,-1
 384 256 l 1,1,-1
 128 256 l 1,2,-1
 128 128 l 1,3,-1
 384 128 l 1,0,-1
256 384 m 1,4,-1
 256 512 l 1,5,-1
 128 512 l 1,6,-1
 128 384 l 1,7,-1
 256 384 l 1,4,-1
0 0 m 1,8,-1
 0 640 l 1,9,-1
 384 640 l 1,10,-1
 384 384 l 1,11,-1
 512 384 l 1,12,-1
 512 0 l 1,13,-1
 0 0 l 1,8,-1
EndSplineSet
Validated: 1
EndChar

StartChar: C
Encoding: 67 67 21
Width: 639
Flags: W
LayerCount: 2
Fore
SplineSet
0 0 m 1,0,-1
 0 640 l 1,1,-1
 512 640 l 1,2,-1
 512 512 l 1,3,-1
 128 512 l 1,4,-1
 128 128 l 1,5,-1
 512 128 l 1,6,-1
 512 0 l 1,7,-1
 0 0 l 1,0,-1
EndSplineSet
Validated: 1
EndChar

StartChar: D
Encoding: 68 68 22
Width: 639
Flags: W
LayerCount: 2
Fore
SplineSet
0 0 m 1,0,-1
 0 640 l 1,1,-1
 384 640 l 1,2,-1
 384 512 l 1,3,-1
 128 512 l 1,4,-1
 128 128 l 1,5,-1
 384 128 l 1,6,-1
 384 512 l 1,7,-1
 512 512 l 1,8,-1
 512 0 l 1,9,-1
 0 0 l 1,0,-1
EndSplineSet
Validated: 5
EndChar

StartChar: E
Encoding: 69 69 23
Width: 639
Flags: W
LayerCount: 2
Fore
SplineSet
0 0 m 1,0,-1
 0 640 l 1,1,-1
 512 640 l 1,2,-1
 512 512 l 1,3,-1
 128 512 l 1,4,-1
 128 384 l 1,5,-1
 384 384 l 1,6,-1
 384 256 l 1,7,-1
 128 256 l 1,8,-1
 128 128 l 1,9,-1
 512 128 l 1,10,-1
 512 0 l 1,11,-1
 0 0 l 1,0,-1
EndSplineSet
Validated: 1
EndChar

StartChar: F
Encoding: 70 70 24
Width: 639
Flags: W
LayerCount: 2
Fore
SplineSet
0 0 m 1,0,-1
 0 640 l 1,1,-1
 512 640 l 1,2,-1
 512 512 l 1,3,-1
 128 512 l 1,4,-1
 128 384 l 1,5,-1
 384 384 l 1,6,-1
 384 256 l 1,7,-1
 128 256 l 1,8,-1
 128 0 l 1,9,-1
 0 0 l 1,0,-1
EndSplineSet
Validated: 1
EndChar

StartChar: G
Encoding: 71 71 25
Width: 639
Flags: W
LayerCount: 2
Fore
SplineSet
0 0 m 1,0,-1
 0 640 l 1,1,-1
 512 640 l 1,2,-1
 512 512 l 1,3,-1
 128 512 l 1,4,-1
 128 128 l 1,5,-1
 384 128 l 1,6,-1
 384 256 l 1,7,-1
 256 256 l 1,8,-1
 256 384 l 1,9,-1
 512 384 l 1,10,-1
 512 0 l 1,11,-1
 0 0 l 1,0,-1
EndSplineSet
Validated: 1
EndChar

StartChar: H
Encoding: 72 72 26
Width: 639
Flags: W
LayerCount: 2
Fore
SplineSet
0 0 m 1,0,-1
 0 640 l 1,1,-1
 128 640 l 1,2,-1
 128 384 l 1,3,-1
 384 384 l 1,4,-1
 384 640 l 1,5,-1
 512 640 l 1,6,-1
 512 0 l 1,7,-1
 384 0 l 1,8,-1
 384 256 l 1,9,-1
 128 256 l 1,10,-1
 128 0 l 1,11,-1
 0 0 l 1,0,-1
EndSplineSet
Validated: 1
EndChar

StartChar: I
Encoding: 73 73 27
Width: 511
Flags: W
LayerCount: 2
Fore
SplineSet
128 0 m 5,0,-1
 128 640 l 5,1,-1
 256 640 l 5,2,-1
 256 0 l 5,3,-1
 128 0 l 5,0,-1
EndSplineSet
Validated: 1
EndChar

StartChar: J
Encoding: 74 74 28
Width: 639
Flags: W
LayerCount: 2
Fore
SplineSet
0 0 m 1,0,-1
 0 256 l 1,1,-1
 128 256 l 1,2,-1
 128 128 l 1,3,-1
 384 128 l 1,4,-1
 384 640 l 1,5,-1
 512 640 l 1,6,-1
 512 0 l 1,7,-1
 0 0 l 1,0,-1
EndSplineSet
Validated: 1
EndChar

StartChar: K
Encoding: 75 75 29
Width: 639
Flags: W
LayerCount: 2
Fore
SplineSet
384 0 m 1,0,-1
 384 128 l 1,1,-1
 512 128 l 1,2,-1
 512 0 l 1,3,-1
 384 0 l 1,0,-1
256 128 m 1,4,-1
 256 256 l 1,5,-1
 384 256 l 1,6,-1
 384 128 l 1,7,-1
 256 128 l 1,4,-1
256 384 m 1,8,-1
 256 512 l 1,9,-1
 384 512 l 1,10,-1
 384 384 l 1,11,-1
 256 384 l 1,8,-1
0 0 m 1,12,-1
 0 640 l 1,13,-1
 128 640 l 1,14,-1
 128 384 l 1,15,-1
 256 384 l 1,16,-1
 256 256 l 1,17,-1
 128 256 l 1,18,-1
 128 0 l 1,19,-1
 0 0 l 1,12,-1
384 512 m 1,20,-1
 384 640 l 1,21,-1
 512 640 l 1,22,-1
 512 512 l 1,23,-1
 384 512 l 1,20,-1
EndSplineSet
Validated: 5
EndChar

StartChar: L
Encoding: 76 76 30
Width: 639
Flags: W
LayerCount: 2
Fore
SplineSet
0 0 m 1,0,-1
 0 640 l 1,1,-1
 128 640 l 1,2,-1
 128 128 l 1,3,-1
 512 128 l 1,4,-1
 512 0 l 1,5,-1
 0 0 l 1,0,-1
EndSplineSet
Validated: 1
EndChar

StartChar: M
Encoding: 77 77 31
Width: 767
Flags: W
LayerCount: 2
Fore
SplineSet
256 256 m 1,0,-1
 256 384 l 1,1,-1
 384 384 l 1,2,-1
 384 256 l 1,3,-1
 256 256 l 1,0,-1
0 0 m 1,4,-1
 0 640 l 1,5,-1
 128 640 l 1,6,-1
 128 512 l 1,7,-1
 256 512 l 1,8,-1
 256 384 l 1,9,-1
 128 384 l 1,10,-1
 128 0 l 1,11,-1
 0 0 l 1,4,-1
512 0 m 1,12,-1
 512 384 l 1,13,-1
 384 384 l 1,14,-1
 384 512 l 1,15,-1
 512 512 l 1,16,-1
 512 640 l 1,17,-1
 640 640 l 1,18,-1
 640 0 l 1,19,-1
 512 0 l 1,12,-1
EndSplineSet
Validated: 5
EndChar

StartChar: N
Encoding: 78 78 32
Width: 767
Flags: W
LayerCount: 2
Fore
SplineSet
256 256 m 1,0,-1
 256 384 l 1,1,-1
 384 384 l 1,2,-1
 384 256 l 1,3,-1
 256 256 l 1,0,-1
0 0 m 1,4,-1
 0 640 l 1,5,-1
 128 640 l 1,6,-1
 128 512 l 1,7,-1
 256 512 l 1,8,-1
 256 384 l 1,9,-1
 128 384 l 1,10,-1
 128 0 l 1,11,-1
 0 0 l 1,4,-1
512 0 m 1,12,-1
 512 128 l 1,13,-1
 384 128 l 1,14,-1
 384 256 l 1,15,-1
 512 256 l 1,16,-1
 512 640 l 1,17,-1
 640 640 l 1,18,-1
 640 0 l 1,19,-1
 512 0 l 1,12,-1
EndSplineSet
Validated: 5
EndChar

StartChar: O
Encoding: 79 79 33
Width: 639
Flags: W
LayerCount: 2
Fore
SplineSet
384 128 m 5,0,-1
 384 512 l 5,1,-1
 128 512 l 5,2,-1
 128 128 l 5,3,-1
 384 128 l 5,0,-1
0 0 m 5,4,-1
 0 640 l 5,5,-1
 512 640 l 5,6,-1
 512 0 l 5,7,-1
 0 0 l 5,4,-1
EndSplineSet
Validated: 1
EndChar

StartChar: P
Encoding: 80 80 34
Width: 639
Flags: W
LayerCount: 2
Fore
SplineSet
384 384 m 1,0,-1
 384 512 l 1,1,-1
 128 512 l 1,2,-1
 128 384 l 1,3,-1
 384 384 l 1,0,-1
0 0 m 1,4,-1
 0 640 l 1,5,-1
 512 640 l 1,6,-1
 512 256 l 1,7,-1
 128 256 l 1,8,-1
 128 0 l 1,9,-1
 0 0 l 1,4,-1
EndSplineSet
Validated: 1
EndChar

StartChar: Q
Encoding: 81 81 35
Width: 767
Flags: W
LayerCount: 2
Fore
SplineSet
512 -128 m 1,0,-1
 512 0 l 1,1,-1
 640 0 l 1,2,-1
 640 -128 l 1,3,-1
 512 -128 l 1,0,-1
256 128 m 1,4,-1
 256 256 l 1,5,-1
 384 256 l 1,6,-1
 384 512 l 1,7,-1
 128 512 l 1,8,-1
 128 128 l 1,9,-1
 256 128 l 1,4,-1
0 0 m 1,10,-1
 0 640 l 1,11,-1
 512 640 l 1,12,-1
 512 0 l 1,13,-1
 0 0 l 1,10,-1
EndSplineSet
Validated: 5
EndChar

StartChar: R
Encoding: 82 82 36
Width: 639
Flags: W
LayerCount: 2
Fore
SplineSet
384 0 m 1,0,-1
 384 128 l 1,1,-1
 512 128 l 1,2,-1
 512 0 l 1,3,-1
 384 0 l 1,0,-1
384 384 m 1,4,-1
 384 512 l 1,5,-1
 128 512 l 1,6,-1
 128 384 l 1,7,-1
 384 384 l 1,4,-1
0 0 m 1,8,-1
 0 640 l 1,9,-1
 512 640 l 1,10,-1
 512 256 l 1,11,-1
 384 256 l 1,12,-1
 384 128 l 1,13,-1
 256 128 l 1,14,-1
 256 256 l 1,15,-1
 128 256 l 1,16,-1
 128 0 l 1,17,-1
 0 0 l 1,8,-1
EndSplineSet
Validated: 5
EndChar

StartChar: S
Encoding: 83 83 37
Width: 639
Flags: W
LayerCount: 2
Fore
SplineSet
0 0 m 1,0,-1
 0 128 l 1,1,-1
 384 128 l 1,2,-1
 384 256 l 1,3,-1
 0 256 l 1,4,-1
 0 640 l 1,5,-1
 512 640 l 1,6,-1
 512 512 l 1,7,-1
 128 512 l 1,8,-1
 128 384 l 1,9,-1
 512 384 l 1,10,-1
 512 0 l 1,11,-1
 0 0 l 1,0,-1
EndSplineSet
Validated: 1
EndChar

StartChar: T
Encoding: 84 84 38
Width: 767
Flags: W
LayerCount: 2
Fore
SplineSet
256 0 m 1,0,-1
 256 512 l 1,1,-1
 0 512 l 1,2,-1
 0 640 l 1,3,-1
 640 640 l 1,4,-1
 640 512 l 1,5,-1
 384 512 l 1,6,-1
 384 0 l 1,7,-1
 256 0 l 1,0,-1
EndSplineSet
Validated: 1
EndChar

StartChar: U
Encoding: 85 85 39
Width: 639
Flags: W
LayerCount: 2
Fore
SplineSet
0 0 m 1,0,-1
 0 640 l 1,1,-1
 128 640 l 1,2,-1
 128 128 l 1,3,-1
 384 128 l 1,4,-1
 384 640 l 1,5,-1
 512 640 l 1,6,-1
 512 0 l 1,7,-1
 0 0 l 1,0,-1
EndSplineSet
Validated: 1
EndChar

StartChar: V
Encoding: 86 86 40
Width: 639
Flags: W
LayerCount: 2
Fore
SplineSet
128 0 m 1,0,-1
 128 128 l 1,1,-1
 256 128 l 1,2,-1
 256 0 l 1,3,-1
 128 0 l 1,0,-1
256 128 m 1,4,-1
 256 256 l 1,5,-1
 384 256 l 1,6,-1
 384 128 l 1,7,-1
 256 128 l 1,4,-1
0 128 m 1,8,-1
 0 640 l 1,9,-1
 128 640 l 1,10,-1
 128 128 l 1,11,-1
 0 128 l 1,8,-1
384 256 m 1,12,-1
 384 640 l 1,13,-1
 512 640 l 1,14,-1
 512 256 l 1,15,-1
 384 256 l 1,12,-1
EndSplineSet
Validated: 5
EndChar

StartChar: W
Encoding: 87 87 41
Width: 767
Flags: W
LayerCount: 2
Fore
SplineSet
0 0 m 1,0,-1
 0 640 l 1,1,-1
 128 640 l 1,2,-1
 128 128 l 1,3,-1
 256 128 l 1,4,-1
 256 640 l 1,5,-1
 384 640 l 1,6,-1
 384 128 l 1,7,-1
 512 128 l 1,8,-1
 512 640 l 1,9,-1
 640 640 l 1,10,-1
 640 0 l 1,11,-1
 0 0 l 1,0,-1
EndSplineSet
Validated: 1
EndChar

StartChar: X
Encoding: 88 88 42
Width: 767
Flags: W
LayerCount: 2
Fore
SplineSet
0 0 m 1,0,-1
 0 128 l 1,1,-1
 128 128 l 1,2,-1
 128 0 l 1,3,-1
 0 0 l 1,0,-1
512 0 m 1,4,-1
 512 128 l 1,5,-1
 640 128 l 1,6,-1
 640 0 l 1,7,-1
 512 0 l 1,4,-1
128 128 m 1,8,-1
 128 256 l 1,9,-1
 256 256 l 1,10,-1
 256 128 l 1,11,-1
 128 128 l 1,8,-1
384 128 m 1,12,-1
 384 256 l 1,13,-1
 512 256 l 1,14,-1
 512 128 l 1,15,-1
 384 128 l 1,12,-1
256 256 m 1,16,-1
 256 384 l 1,17,-1
 384 384 l 1,18,-1
 384 256 l 1,19,-1
 256 256 l 1,16,-1
128 384 m 1,20,-1
 128 512 l 1,21,-1
 256 512 l 1,22,-1
 256 384 l 1,23,-1
 128 384 l 1,20,-1
384 384 m 1,24,-1
 384 512 l 1,25,-1
 512 512 l 1,26,-1
 512 384 l 1,27,-1
 384 384 l 1,24,-1
0 512 m 1,28,-1
 0 640 l 1,29,-1
 128 640 l 1,30,-1
 128 512 l 1,31,-1
 0 512 l 1,28,-1
512 512 m 1,32,-1
 512 640 l 1,33,-1
 640 640 l 1,34,-1
 640 512 l 1,35,-1
 512 512 l 1,32,-1
EndSplineSet
Validated: 5
EndChar

StartChar: Y
Encoding: 89 89 43
Width: 767
Flags: W
LayerCount: 2
Fore
SplineSet
0 0 m 1,0,-1
 0 128 l 1,1,-1
 128 128 l 1,2,-1
 128 0 l 1,3,-1
 0 0 l 1,0,-1
128 128 m 1,4,-1
 128 256 l 1,5,-1
 256 256 l 1,6,-1
 256 128 l 1,7,-1
 128 128 l 1,4,-1
256 256 m 1,8,-1
 256 384 l 1,9,-1
 384 384 l 1,10,-1
 384 256 l 1,11,-1
 256 256 l 1,8,-1
128 384 m 1,12,-1
 128 512 l 1,13,-1
 256 512 l 1,14,-1
 256 384 l 1,15,-1
 128 384 l 1,12,-1
384 384 m 1,16,-1
 384 512 l 1,17,-1
 512 512 l 1,18,-1
 512 384 l 1,19,-1
 384 384 l 1,16,-1
0 512 m 1,20,-1
 0 640 l 1,21,-1
 128 640 l 1,22,-1
 128 512 l 1,23,-1
 0 512 l 1,20,-1
512 512 m 1,24,-1
 512 640 l 1,25,-1
 640 640 l 1,26,-1
 640 512 l 1,27,-1
 512 512 l 1,24,-1
EndSplineSet
Validated: 5
EndChar

StartChar: Z
Encoding: 90 90 44
Width: 767
Flags: W
LayerCount: 2
Fore
SplineSet
0 0 m 1,0,-1
 0 128 l 1,1,-1
 128 128 l 1,2,-1
 128 256 l 1,3,-1
 256 256 l 1,4,-1
 256 128 l 1,5,-1
 640 128 l 1,6,-1
 640 0 l 1,7,-1
 0 0 l 1,0,-1
256 256 m 1,8,-1
 256 384 l 1,9,-1
 384 384 l 1,10,-1
 384 256 l 1,11,-1
 256 256 l 1,8,-1
384 384 m 1,12,-1
 384 512 l 1,13,-1
 0 512 l 1,14,-1
 0 640 l 1,15,-1
 640 640 l 1,16,-1
 640 512 l 1,17,-1
 512 512 l 1,18,-1
 512 384 l 1,19,-1
 384 384 l 1,12,-1
EndSplineSet
Validated: 5
EndChar

StartChar: a
Encoding: 97 97 45
Width: 767
Flags: W
LayerCount: 2
Fore
SplineSet
384 128 m 5,0,-1
 384 384 l 5,1,-1
 128 384 l 5,2,-1
 128 128 l 5,3,-1
 384 128 l 5,0,-1
514 0 m 5,4,-1
 128 0 l 5,5,-1
 128 128 l 5,6,-1
 0 128 l 5,7,-1
 0 384 l 5,8,-1
 128 384 l 5,9,-1
 128 512 l 5,10,-1
 384 512 l 5,11,-1
 384 384 l 5,12,-1
 512 384 l 5,13,-1
 514 0 l 5,4,-1
EndSplineSet
EndChar

StartChar: b
Encoding: 98 98 46
Width: 639
Flags: W
LayerCount: 2
Fore
SplineSet
384 128 m 1,0,-1
 384 384 l 5,1,-1
 128 384 l 5,2,-1
 128 128 l 1,3,-1
 384 128 l 1,0,-1
0 0 m 1,4,-1
 0 640 l 1,5,-1
 128 640 l 1,6,-1
 128 512 l 5,7,-1
 384 512 l 5,8,-1
 384 384 l 5,9,-1
 512 384 l 5,10,-1
 512 128 l 1,11,-1
 384 128 l 1,12,-1
 384 0 l 1,13,-1
 0 0 l 1,4,-1
EndSplineSet
EndChar

StartChar: c
Encoding: 99 99 47
Width: 639
Flags: WO
LayerCount: 2
Fore
SplineSet
128 128 m 5,0,-1
 0 128 l 5,1,-1
 0 384 l 5,2,-1
 128 384 l 5,3,-1
 128 512 l 5,4,-1
 384 512 l 5,5,-1
 384 384 l 5,6,-1
 128 384 l 5,7,-1
 128 128 l 5,8,-1
 384 128 l 5,9,-1
 384 0 l 5,10,-1
 128 0 l 5,11,-1
 128 128 l 5,0,-1
EndSplineSet
EndChar

StartChar: d
Encoding: 100 100 48
Width: 639
Flags: W
LayerCount: 2
Fore
SplineSet
128 128 m 1,0,-1
 128 384 l 5,1,-1
 384 384 l 5,2,-1
 384 128 l 1,3,-1
 128 128 l 1,0,-1
512 0 m 1,4,-1
 512 640 l 1,5,-1
 384 640 l 1,6,-1
 384 512 l 5,7,-1
 128 512 l 5,8,-1
 128 384 l 5,9,-1
 0 384 l 5,10,-1
 0 128 l 1,11,-1
 128 128 l 1,12,-1
 128 0 l 1,13,-1
 512 0 l 1,4,-1
EndSplineSet
EndChar

StartChar: e
Encoding: 101 101 49
Width: 639
Flags: W
LayerCount: 2
Fore
SplineSet
384 256 m 1,0,-1
 384 128 l 1,1,-1
 512 128 l 1,2,-1
 512 0 l 1,3,-1
 128 0 l 1,4,-1
 128 128 l 1,5,-1
 0 128 l 1,6,-1
 0 384 l 1,7,-1
 128 384 l 1,8,-1
 128 512 l 1,9,-1
 384 512 l 1,10,-1
 384 384 l 1,11,-1
 512 384 l 1,12,-1
 512 256 l 1,13,-1
 384 256 l 1,14,-1
 384 318 l 1,15,-1
 384 384 l 1,16,-1
 128 384 l 1,17,-1
 128 128 l 1,18,-1
 256 128 l 1,19,-1
 256 256 l 1,20,-1
 384 256 l 1,0,-1
EndSplineSet
EndChar

StartChar: f
Encoding: 102 102 50
Width: 767
Flags: W
LayerCount: 2
Fore
SplineSet
128 0 m 1,0,-1
 128 256 l 1,1,-1
 0 256 l 1,2,-1
 0 384 l 1,3,-1
 128 384 l 1,4,-1
 128 512 l 1,5,-1
 256 512 l 1,6,-1
 256 640 l 1,7,-1
 512 640 l 5,8,-1
 512 512 l 1,9,-1
 256 512 l 1,10,-1
 256 384 l 1,11,-1
 384 384 l 1,12,-1
 384 256 l 1,13,-1
 256 256 l 1,14,-1
 256 0 l 1,15,-1
 128 0 l 1,0,-1
EndSplineSet
EndChar

StartChar: g
Encoding: 103 103 51
Width: 639
Flags: W
LayerCount: 2
Fore
SplineSet
384 256 m 1,0,-1
 384 384 l 1,1,-1
 128 384 l 1,2,-1
 128 256 l 1,3,-1
 384 256 l 1,0,-1
128 256 m 1,4,-1
 0 256 l 1,5,-1
 0 384 l 1,6,-1
 128 384 l 1,7,-1
 128 512 l 1,8,-1
 512 512 l 1,9,-1
 512 -128 l 1,10,-1
 128 -128 l 1,11,-1
 128 0 l 1,12,-1
 384 0 l 1,13,-1
 384 128 l 1,14,-1
 128 128 l 1,15,-1
 128 256 l 1,4,-1
EndSplineSet
EndChar

StartChar: h
Encoding: 104 104 52
Width: 639
Flags: W
LayerCount: 2
Fore
SplineSet
0 0 m 1,0,-1
 0 640 l 1,1,-1
 128 640 l 1,2,-1
 128 512 l 5,3,-1
 384 512 l 5,4,-1
 384 384 l 5,5,-1
 512 384 l 5,6,-1
 512 0 l 1,7,-1
 384 0 l 1,8,-1
 384 384 l 5,9,-1
 128 384 l 5,10,-1
 128 0 l 1,11,-1
 0 0 l 1,0,-1
EndSplineSet
EndChar

StartChar: i
Encoding: 105 105 53
Width: 511
Flags: W
LayerCount: 2
Fore
SplineSet
128 0 m 1,0,-1
 128 384 l 1,1,-1
 256 384 l 1,2,-1
 256 0 l 1,3,-1
 128 0 l 1,0,-1
128 512 m 1,4,-1
 128 640 l 1,5,-1
 256 640 l 1,6,-1
 256 512 l 1,7,-1
 128 512 l 1,4,-1
EndSplineSet
Validated: 1
EndChar

StartChar: j
Encoding: 106 106 54
Width: 639
Flags: W
LayerCount: 2
Fore
SplineSet
0 0 m 1,0,-1
 0 256 l 1,1,-1
 128 256 l 1,2,-1
 128 128 l 1,3,-1
 384 128 l 1,4,-1
 384 384 l 1,5,-1
 512 384 l 1,6,-1
 512 0 l 1,7,-1
 0 0 l 1,0,-1
384 512 m 1,8,-1
 384 640 l 1,9,-1
 512 640 l 1,10,-1
 512 512 l 1,11,-1
 384 512 l 1,8,-1
EndSplineSet
Validated: 1
EndChar

StartChar: k
Encoding: 107 107 55
Width: 639
Flags: W
LayerCount: 2
Fore
SplineSet
256 0 m 1,0,-1
 256 256 l 5,1,-1
 384 256 l 5,2,-1
 384 0 l 1,3,-1
 256 0 l 1,0,-1
256 384 m 5,4,-1
 256 512 l 5,5,-1
 384 512 l 5,6,-1
 384 384 l 5,7,-1
 256 384 l 5,4,-1
0 0 m 1,8,-1
 0 640 l 1,9,-1
 128 640 l 1,10,-1
 128 384 l 5,11,-1
 256 384 l 5,12,-1
 256 256 l 5,13,-1
 128 256 l 5,14,-1
 128 0 l 1,15,-1
 0 0 l 1,8,-1
EndSplineSet
EndChar

StartChar: l
Encoding: 108 108 56
Width: 639
Flags: W
LayerCount: 2
Fore
SplineSet
128 0 m 5,0,-1
 128 640 l 5,1,-1
 256 640 l 5,2,-1
 256 128 l 5,3,-1
 384 128 l 5,4,-1
 384 0 l 5,5,-1
 128 0 l 5,0,-1
EndSplineSet
EndChar

StartChar: m
Encoding: 109 109 57
Width: 767
Flags: W
LayerCount: 2
Fore
SplineSet
0 0 m 1,0,-1
 0 512 l 1,1,-1
 512 512 l 1,2,-1
 512 384 l 1,3,-1
 640 384 l 1,4,-1
 640 0 l 1,5,-1
 512 0 l 1,6,-1
 512 384 l 1,7,-1
 384 384 l 1,8,-1
 384 0 l 1,9,-1
 256 0 l 1,10,-1
 256 384 l 1,11,-1
 128 384 l 1,12,-1
 128 0 l 1,13,-1
 0 0 l 1,0,-1
EndSplineSet
EndChar

StartChar: n
Encoding: 110 110 58
Width: 639
Flags: W
LayerCount: 2
Fore
SplineSet
0 0 m 1,0,-1
 0 512 l 1,1,-1
 384 512 l 5,2,-1
 384 384 l 5,3,-1
 512 384 l 5,4,-1
 512 0 l 5,5,-1
 384 0 l 5,6,-1
 384 384 l 5,7,-1
 128 384 l 1,8,-1
 128 0 l 1,9,-1
 0 0 l 1,0,-1
EndSplineSet
EndChar

StartChar: o
Encoding: 111 111 59
Width: 639
Flags: W
LayerCount: 2
Fore
SplineSet
384 128 m 5,0,-1
 384 384 l 5,1,-1
 128 384 l 1,2,-1
 128 128 l 1,3,-1
 384 128 l 5,0,-1
128 128 m 1,4,-1
 0 128 l 1,5,-1
 0 384 l 1,6,-1
 128 384 l 1,7,-1
 128 512 l 1,8,-1
 384 512 l 5,9,-1
 384 384 l 5,10,-1
 512 384 l 5,11,-1
 512 128 l 5,12,-1
 384 128 l 5,13,-1
 384 0 l 5,14,-1
 128 0 l 1,15,-1
 128 128 l 1,4,-1
EndSplineSet
EndChar

StartChar: p
Encoding: 112 112 60
Width: 639
Flags: W
LayerCount: 2
Fore
SplineSet
384 128 m 1,0,-1
 384 384 l 5,1,-1
 128 384 l 5,2,-1
 128 128 l 1,3,-1
 384 128 l 1,0,-1
0 -205 m 1,4,-1
 0 512 l 5,5,-1
 384 512 l 5,6,-1
 384 384 l 5,7,-1
 512 384 l 5,8,-1
 512 128 l 1,9,-1
 384 128 l 1,10,-1
 384 0 l 1,11,-1
 128 0 l 1,12,-1
 128 -205 l 1,13,-1
 0 -205 l 1,4,-1
EndSplineSet
EndChar

StartChar: q
Encoding: 113 113 61
Width: 639
Flags: W
LayerCount: 2
Fore
SplineSet
128 128 m 1,0,-1
 128 384 l 5,1,-1
 384 384 l 5,2,-1
 384 128 l 1,3,-1
 128 128 l 1,0,-1
512 -244 m 1,4,-1
 512 512 l 5,5,-1
 128 512 l 5,6,-1
 128 384 l 5,7,-1
 0 384 l 5,8,-1
 0 128 l 1,9,-1
 128 128 l 1,10,-1
 128 0 l 1,11,-1
 384 0 l 1,12,-1
 384 -244 l 1,13,-1
 512 -244 l 1,4,-1
EndSplineSet
EndChar

StartChar: r
Encoding: 114 114 62
Width: 639
Flags: W
LayerCount: 2
Fore
SplineSet
0 0 m 1,0,-1
 0 512 l 5,1,-1
 384 512 l 5,2,-1
 384 384 l 5,3,-1
 128 384 l 5,4,-1
 128 0 l 1,5,-1
 0 0 l 1,0,-1
EndSplineSet
EndChar

StartChar: s
Encoding: 115 115 63
Width: 614
Flags: W
LayerCount: 2
Fore
SplineSet
384 128 m 1,0,-1
 384 0 l 5,1,-1
 0 0 l 1,2,-1
 0 128 l 1,3,-1
 256 128 l 1,4,-1
 256 128 l 1,5,-1
 256 256 l 1,6,-1
 0 256 l 1,7,-1
 0 384 l 1,8,-1
 128 384 l 1,9,-1
 128 512 l 1,10,-1
 512 512 l 1,11,-1
 512 384 l 1,12,-1
 256 384 l 1,13,-1
 256 256 l 1,14,-1
 512 256 l 1,15,-1
 512 128 l 1,16,-1
 384 128 l 1,0,-1
EndSplineSet
EndChar

StartChar: t
Encoding: 116 116 64
Width: 639
Flags: W
LayerCount: 2
Fore
SplineSet
128 0 m 1,0,-1
 128 384 l 5,1,-1
 0 384 l 5,2,-1
 0 512 l 5,3,-1
 128 512 l 5,4,-1
 128 640 l 1,5,-1
 256 640 l 1,6,-1
 256 512 l 5,7,-1
 384 512 l 5,8,-1
 384 384 l 5,9,-1
 256 384 l 5,10,-1
 256 128 l 1,11,-1
 384 128 l 1,12,-1
 384 0 l 1,13,-1
 128 0 l 1,0,-1
EndSplineSet
EndChar

StartChar: u
Encoding: 117 117 65
Width: 767
Flags: W
LayerCount: 2
Fore
SplineSet
128 128 m 1,0,-1
 0 128 l 1,1,-1
 0 512 l 5,2,-1
 128 512 l 5,3,-1
 128 128 l 1,4,-1
 256 128 l 1,5,-1
 256 512 l 5,6,-1
 384 512 l 5,7,-1
 384 128 l 1,8,-1
 512 128 l 1,9,-1
 512 0 l 1,10,-1
 128 0 l 1,11,-1
 128 128 l 1,0,-1
EndSplineSet
EndChar

StartChar: v
Encoding: 118 118 66
Width: 639
Flags: W
LayerCount: 2
Fore
SplineSet
128 0 m 1,0,-1
 128 128 l 1,1,-1
 256 128 l 1,2,-1
 256 0 l 1,3,-1
 128 0 l 1,0,-1
0 128 m 1,4,-1
 0 512 l 5,5,-1
 128 512 l 5,6,-1
 128 128 l 1,7,-1
 0 128 l 1,4,-1
256 128 m 1,8,-1
 256 512 l 5,9,-1
 384 512 l 5,10,-1
 384 128 l 1,11,-1
 256 128 l 1,8,-1
EndSplineSet
EndChar

StartChar: w
Encoding: 119 119 67
Width: 639
Flags: W
LayerCount: 2
Fore
SplineSet
384 0 m 1,0,-1
 384 128 l 1,1,-1
 512 128 l 1,2,-1
 512 0 l 1,3,-1
 384 0 l 1,0,-1
384 128 m 1,4,-1
512 128 m 1,5,-1
 512 512 l 5,6,-1
 640 512 l 5,7,-1
 640 128 l 1,8,-1
 512 128 l 1,5,-1
128 0 m 1,9,-1
 128 128 l 1,10,-1
 256 128 l 1,11,-1
 256 0 l 1,12,-1
 128 0 l 1,9,-1
0 128 m 1,13,-1
 0 512 l 5,14,-1
 128 512 l 5,15,-1
 128 128 l 1,16,-1
 0 128 l 1,13,-1
256 128 m 1,17,-1
 256 256 l 1,18,-1
 384 256 l 1,19,-1
 384 128 l 1,20,-1
 256 128 l 1,17,-1
EndSplineSet
EndChar

StartChar: x
Encoding: 120 120 68
Width: 767
Flags: W
LayerCount: 2
Fore
SplineSet
0 0 m 1,0,-1
384 0 m 1,1,-1
0 0 m 1,2,-1
 0 128 l 1,3,-1
 128 128 l 1,4,-1
 128 0 l 1,5,-1
 0 0 l 1,2,-1
256 0 m 1,6,-1
 256 128 l 1,7,-1
 384 128 l 1,8,-1
 384 0 l 1,9,-1
 256 0 l 1,6,-1
128 128 m 1,10,-1
 128 384 l 1,11,-1
 256 384 l 1,12,-1
 256 128 l 1,13,-1
 128 128 l 1,10,-1
0 384 m 1,14,-1
 0 512 l 1,15,-1
 128 512 l 1,16,-1
 128 384 l 1,17,-1
 0 384 l 1,14,-1
256 384 m 1,18,-1
 256 512 l 1,19,-1
 384 512 l 1,20,-1
 384 384 l 1,21,-1
 256 384 l 1,18,-1
0 512 m 1,22,-1
384 512 m 1,23,-1
EndSplineSet
EndChar

StartChar: y
Encoding: 121 121 69
Width: 639
Flags: W
LayerCount: 2
Fore
SplineSet
0 -128 m 1,0,-1
 0 0 l 1,1,-1
 384 0 l 1,2,-1
 384 128 l 1,3,-1
 128 128 l 1,4,-1
 128 256 l 1,5,-1
 0 256 l 1,6,-1
 0 512 l 1,7,-1
 128 512 l 1,8,-1
 128 256 l 1,9,-1
 384 256 l 1,10,-1
 384 512 l 1,11,-1
 512 512 l 1,12,-1
 512 0 l 1,13,-1
 384 0 l 1,14,-1
 384 -128 l 1,15,-1
 0 -128 l 1,0,-1
EndSplineSet
EndChar

StartChar: z
Encoding: 122 122 70
Width: 639
Flags: W
LayerCount: 2
Fore
SplineSet
0 0 m 1,0,-1
 512 0 l 1,1,-1
 512 128 l 5,2,-1
 256 128 l 1,3,-1
 256 256 l 1,4,-1
 384 256 l 1,5,-1
 384 384 l 1,6,-1
 512 384 l 1,7,-1
 512 512 l 1,8,-1
 0 512 l 1,9,-1
 0 384 l 1,10,-1
 256 384 l 1,11,-1
 256 256 l 1,12,-1
 128 256 l 1,13,-1
 128 128 l 1,14,-1
 0 128 l 1,15,-1
 0 0 l 1,0,-1
EndSplineSet
EndChar

StartChar: quotedblleft
Encoding: 8220 8220 71
Width: 511
Flags: W
LayerCount: 2
Fore
SplineSet
0 512 m 1,0,-1
 0 768 l 1,1,-1
 128 768 l 1,2,-1
 128 512 l 1,3,-1
 0 512 l 1,0,-1
256 512 m 1,4,-1
 256 768 l 1,5,-1
 384 768 l 1,6,-1
 384 512 l 1,7,-1
 256 512 l 1,4,-1
EndSplineSet
Validated: 1
EndChar

StartChar: quotedblright
Encoding: 8221 8221 72
Width: 511
Flags: W
LayerCount: 2
Fore
SplineSet
0 512 m 1,0,-1
 0 768 l 1,1,-1
 128 768 l 1,2,-1
 128 512 l 1,3,-1
 0 512 l 1,0,-1
256 512 m 1,4,-1
 256 768 l 1,5,-1
 384 768 l 1,6,-1
 384 512 l 1,7,-1
 256 512 l 1,4,-1
EndSplineSet
Validated: 1
EndChar

StartChar: at
Encoding: 64 64 73
Width: 639
Flags: W
LayerCount: 2
Fore
SplineSet
0 0 m 5,0,-1
 0 640 l 5,1,-1
 512 640 l 5,2,-1
 512 256 l 5,3,-1
 255 255 l 5,4,-1
 256 512 l 5,5,-1
 128 512 l 5,6,-1
 128 128 l 5,7,-1
 512 128 l 5,8,-1
 512 0 l 5,9,-1
 0 0 l 5,0,-1
EndSplineSet
Validated: 1
EndChar

StartChar: quotedbl
Encoding: 34 34 74
Width: 639
Flags: W
LayerCount: 2
Fore
SplineSet
384 512 m 5,0,-1
 384 768 l 5,1,-1
 512 768 l 5,2,-1
 512 512 l 5,3,-1
 384 512 l 5,0,-1
128 512 m 5,4,-1
 128 768 l 5,5,-1
 256 768 l 5,6,-1
 256 512 l 5,7,-1
 128 512 l 5,4,-1
EndSplineSet
Validated: 1
EndChar

StartChar: dnblock
Encoding: 9604 9604 75
Width: 1232
VWidth: 2048
Flags: WO
LayerCount: 2
Fore
SplineSet
-20 -512 m 5,0,-1
 -17 320 l 5,1,-1
 1255 320 l 5,2,-1
 1253 -512 l 5,3,-1
 -20 -512 l 5,0,-1
EndSplineSet
Validated: 1
EndChar

StartChar: heart
Encoding: 9829 9829 76
Width: 767
Flags: W
LayerCount: 2
Fore
SplineSet
0 256 m 5,0,-1
 0 512 l 5,1,-1
 128 512 l 5,2,-1
 128 640 l 5,3,-1
 256 640 l 5,4,-1
 256 512 l 5,5,-1
 384 512 l 5,6,-1
 384 640 l 5,7,-1
 512 640 l 5,8,-1
 512 512 l 5,9,-1
 640 512 l 5,10,-1
 640 256 l 5,11,-1
 512 256 l 5,12,-1
 512 128 l 5,13,-1
 384 128 l 5,14,-1
 384 0 l 5,15,-1
 256 0 l 5,16,-1
 256 128 l 5,17,-1
 128 128 l 5,18,-1
 128 256 l 5,19,-1
 0 256 l 5,0,-1
EndSplineSet
Validated: 1
EndChar

StartChar: uni2206
Encoding: 8710 8710 77
Width: 767
Flags: W
LayerCount: 2
Fore
SplineSet
128 128 m 25,0,-1
 512 128 l 25,1,-1
 512 256 l 25,2,-1
 384 256 l 25,3,-1
 384 384 l 25,4,-1
 256 384 l 25,5,-1
 256 256 l 25,6,-1
 128 256 l 25,7,-1
0 0 m 5,8,-1
 0 384 l 1,9,-1
 128 384 l 1,10,-1
 128 512 l 1,11,-1
 256 512 l 1,12,-1
 256 640 l 1,13,-1
 384 640 l 1,14,-1
 384 512 l 1,15,-1
 512 512 l 1,16,-1
 512 384 l 1,17,-1
 640 384 l 1,18,-1
 640 0 l 1,19,-1
EndSplineSet
Validated: 3
EndChar

StartChar: uni1D16
Encoding: 7446 7446 78
Width: 767
Flags: W
LayerCount: 2
Fore
SplineSet
384 512 m 5,0,-1
 512 512 l 5,1,-1
 512 384 l 5,2,-1
 640 384 l 5,3,-1
 640 128 l 5,4,-1
 512 128 l 5,5,-1
 512 383 l 5,6,-1
 128 383 l 5,7,-1
 128 128 l 5,8,-1
 0 128 l 5,9,-1
 0 384 l 5,10,-1
 128 384 l 5,11,-1
 128 512 l 5,12,-1
 256 512 l 5,13,-1
EndSplineSet
Validated: 3
EndChar

StartChar: asciitilde
Encoding: 126 126 79
Width: 638
Flags: W
LayerCount: 2
Fore
SplineSet
256 384 m 5,0,-1
 128 384 l 5,1,-1
 128 256 l 5,2,-1
 0 256 l 5,3,-1
 0 384 l 5,4,-1
 128 384 l 5,5,-1
 128 512 l 5,6,-1
 256 512 l 5,7,-1
 256 384 l 5,0,-1
512 512 m 5,8,-1
 384 512 l 5,9,-1
 384 384 l 5,10,-1
 256 384 l 5,11,-1
 256 256 l 5,12,-1
 384 256 l 5,13,-1
 384 384 l 5,14,-1
 512 384 l 5,15,-1
 512 512 l 5,8,-1
EndSplineSet
Validated: 5
EndChar

StartChar: approxequal
Encoding: 8776 8776 80
Width: 638
Flags: W
LayerCount: 2
Fore
SplineSet
256 128 m 1,0,-1
 128 128 l 1,1,-1
 128 0 l 1,2,-1
 0 0 l 1,3,-1
 0 128 l 1,4,-1
 128 128 l 1,5,-1
 128 256 l 1,6,-1
 256 256 l 1,7,-1
512 256 m 1,8,-1
 384 256 l 1,9,-1
 384 128 l 1,10,-1
 256 128 l 1,11,-1
 256 0 l 1,12,-1
 384 0 l 1,13,-1
 384 128 l 1,14,-1
 512 128 l 5,15,-1
256 512 m 1,16,-1
 128 512 l 1,17,-1
 128 385 l 1,18,-1
 0 385 l 1,19,-1
 0 512 l 1,20,-1
 128 512 l 1,21,-1
 128 641 l 1,22,-1
 256 641 l 1,23,-1
512 640 m 1,24,-1
 384 640 l 1,25,-1
 384 512 l 1,26,-1
 256 512 l 1,27,-1
 256 384 l 1,28,-1
 384 384 l 1,29,-1
 384 512 l 1,30,-1
 512 512 l 1,31,-1
EndSplineSet
Validated: 3
EndChar

StartChar: uni01C1
Encoding: 449 449 81
Width: 639
Flags: W
LayerCount: 2
Fore
SplineSet
384 0 m 1,0,-1
 256 0 l 1,1,-1
 256 640 l 1,2,-1
 384 640 l 1,3,-1
128 0 m 1,4,-1
 0 0 l 1,5,-1
 0 640 l 1,6,-1
 128 640 l 1,7,-1
EndSplineSet
Validated: 3
EndChar

StartChar: uni2648
Encoding: 9800 9800 82
Width: 767
Flags: W
LayerCount: 2
Fore
SplineSet
640 256 m 1,0,-1
 512 256 l 1,1,-1
 512 384 l 1,2,-1
 640 384 l 1,3,-1
 640 256 l 1,0,-1
512 384 m 1,4,-1
 384 384 l 1,5,-1
 384 512 l 1,6,-1
 512 512 l 1,7,-1
 512 384 l 1,4,-1
384 0 m 1,8,-1
 256 0 l 1,9,-1
 256 384 l 1,10,-1
 384 384 l 1,11,-1
 384 0 l 1,8,-1
128 256 m 1,12,-1
 0 256 l 1,13,-1
 0 384 l 1,14,-1
 128 384 l 1,15,-1
 128 256 l 1,12,-1
256 384 m 1,16,-1
 128 384 l 1,17,-1
 128 512 l 1,18,-1
 256 512 l 1,19,-1
 256 384 l 1,16,-1
EndSplineSet
Validated: 5
EndChar

StartChar: slash
Encoding: 47 47 83
Width: 767
Flags: W
LayerCount: 2
Fore
SplineSet
512 512 m 5,0,-1
 512 640 l 5,1,-1
 640 640 l 5,2,-1
 640 512 l 5,3,-1
 512 512 l 5,0,-1
256 256 m 5,4,-1
 256 384 l 5,5,-1
 384 384 l 5,6,-1
 384 256 l 5,7,-1
 256 256 l 5,4,-1
128 128 m 5,8,-1
 128 256 l 5,9,-1
 256 256 l 5,10,-1
 256 128 l 5,11,-1
 128 128 l 5,8,-1
384 384 m 5,12,-1
 384 512 l 5,13,-1
 512 512 l 5,14,-1
 512 384 l 5,15,-1
 384 384 l 5,12,-1
0 0 m 5,16,-1
 0 128 l 5,17,-1
 128 128 l 5,18,-1
 128 0 l 5,19,-1
 0 0 l 5,16,-1
EndSplineSet
Validated: 5
EndChar

StartChar: percent
Encoding: 37 37 84
Width: 767
Flags: W
LayerCount: 2
Fore
SplineSet
512 0 m 5,0,-1
 512 128 l 5,1,-1
 640 128 l 5,2,-1
 640 0 l 5,3,-1
 512 0 l 5,0,-1
512 0 m 5,4,-1
0 512 m 5,5,-1
 0 640 l 5,6,-1
 128 640 l 5,7,-1
 128 512 l 5,8,-1
 0 512 l 5,5,-1
0 512 m 5,9,-1
512 512 m 5,10,-1
 512 640 l 5,11,-1
 640 640 l 5,12,-1
 640 512 l 5,13,-1
 512 512 l 5,10,-1
256 256 m 5,14,-1
 256 384 l 5,15,-1
 384 384 l 5,16,-1
 384 256 l 5,17,-1
 256 256 l 5,14,-1
128 128 m 5,18,-1
 128 256 l 5,19,-1
 256 256 l 5,20,-1
 256 128 l 5,21,-1
 128 128 l 5,18,-1
384 384 m 5,22,-1
 384 512 l 5,23,-1
 512 512 l 5,24,-1
 512 384 l 5,25,-1
 384 384 l 5,22,-1
0 0 m 5,26,-1
 0 128 l 5,27,-1
 128 128 l 5,28,-1
 128 0 l 5,29,-1
 0 0 l 5,26,-1
EndSplineSet
Validated: 5
EndChar

StartChar: asterisk
Encoding: 42 42 85
Width: 767
Flags: W
LayerCount: 2
Fore
SplineSet
384 128 m 1,0,-1
 384 256 l 1,1,-1
 512 256 l 1,2,-1
 512 128 l 1,3,-1
 384 128 l 1,0,-1
384 128 m 1,4,-1
128 384 m 1,5,-1
 128 512 l 1,6,-1
 256 512 l 1,7,-1
 256 384 l 1,8,-1
 128 384 l 1,5,-1
128 384 m 1,9,-1
256 256 m 1,10,-1
 256 384 l 1,11,-1
 384 384 l 1,12,-1
 384 256 l 1,13,-1
 256 256 l 1,10,-1
128 128 m 1,14,-1
 128 256 l 1,15,-1
 256 256 l 1,16,-1
 256 128 l 1,17,-1
 128 128 l 1,14,-1
384 384 m 1,18,-1
 384 512 l 1,19,-1
 512 512 l 1,20,-1
 512 384 l 1,21,-1
 384 384 l 1,18,-1
EndSplineSet
Validated: 5
EndChar

StartChar: hyphen
Encoding: 45 45 86
Width: 767
Flags: W
LayerCount: 2
Fore
SplineSet
0 256 m 5,0,-1
 0 384 l 5,1,-1
 640 384 l 5,2,-1
 640 256 l 5,3,-1
 0 256 l 5,0,-1
EndSplineSet
Validated: 1
EndChar

StartChar: SF010000
Encoding: 9484 9484 87
Width: 767
Flags: W
LayerCount: 2
Fore
SplineSet
256 -204 m 5,0,-1
 256 384 l 5,1,-1
 788 384 l 5,2,-1
 788 256 l 5,3,-1
 384 256 l 5,4,-1
 384 -204 l 5,5,-1
 256 -204 l 5,0,-1
EndSplineSet
Validated: 1
EndChar

StartChar: SF030000
Encoding: 9488 9488 88
Width: 767
Flags: W
LayerCount: 2
Fore
SplineSet
384 -204 m 5,0,-1
 384 384 l 5,1,-1
 0 384 l 5,2,-1
 0 256 l 5,3,-1
 256 256 l 5,4,-1
 256 -204 l 5,5,-1
 384 -204 l 5,0,-1
EndSplineSet
Validated: 9
EndChar

StartChar: SF020000
Encoding: 9492 9492 89
Width: 767
Flags: W
LayerCount: 2
Fore
SplineSet
256 820 m 5,0,-1
 256 256 l 5,1,-1
 788 256 l 5,2,-1
 788 384 l 5,3,-1
 384 384 l 5,4,-1
 384 820 l 5,5,-1
 256 820 l 5,0,-1
EndSplineSet
Validated: 9
EndChar

StartChar: SF040000
Encoding: 9496 9496 90
Width: 767
Flags: W
LayerCount: 2
Fore
SplineSet
384 819 m 1,0,-1
 384 254 l 1,1,-1
 0 254 l 1,2,-1
 0 383 l 1,3,-1
 256 383 l 1,4,-1
 256 819 l 1,5,-1
 384 819 l 1,0,-1
EndSplineSet
Validated: 1
EndChar

StartChar: SF110000
Encoding: 9474 9474 91
Width: 767
Flags: W
LayerCount: 2
Fore
SplineSet
384 -206 m 5,0,-1
 256 -206 l 5,1,-1
 256 820 l 5,2,-1
 384 820 l 5,3,-1
 384 -206 l 5,0,-1
EndSplineSet
Validated: 1
EndChar

StartChar: SF100000
Encoding: 9472 9472 92
Width: 767
Flags: W
LayerCount: 2
Fore
SplineSet
0 256 m 5,0,-1
 0 384 l 5,1,-1
 788 384 l 5,2,-1
 788 256 l 5,3,-1
 0 256 l 5,0,-1
EndSplineSet
Validated: 1
EndChar

StartChar: SF070000
Encoding: 9524 9524 93
Width: 767
Flags: W
LayerCount: 2
Fore
SplineSet
256 820 m 5,0,-1
 256 384 l 1,1,-1
 0 384 l 1,2,-1
 0 256 l 1,3,-1
 788 256 l 1,4,-1
 788 384 l 1,5,-1
 384 384 l 1,6,-1
 384 820 l 1,7,-1
 256 820 l 5,0,-1
EndSplineSet
Validated: 9
EndChar

StartChar: SF430000
Encoding: 9552 9552 94
Width: 767
Flags: W
LayerCount: 2
Fore
SplineSet
0 128 m 1,0,-1
 0 256 l 1,1,-1
 788 256 l 5,2,-1
 788 128 l 1,3,-1
 0 128 l 1,0,-1
0 384 m 1,4,-1
 0 512 l 1,5,-1
 788 512 l 1,6,-1
 788 384 l 1,7,-1
 0 384 l 1,4,-1
EndSplineSet
Validated: 1
EndChar

StartChar: SF240000
Encoding: 9553 9553 95
Width: 767
Flags: W
LayerCount: 2
Fore
SplineSet
512 -206 m 1,0,-1
 384 -206 l 1,1,-1
 384 820 l 1,2,-1
 512 820 l 1,3,-1
 512 -206 l 1,0,-1
256 -206 m 1,4,-1
 128 -206 l 1,5,-1
 128 820 l 1,6,-1
 256 820 l 1,7,-1
 256 -206 l 1,4,-1
EndSplineSet
Validated: 1
EndChar

StartChar: SF380000
Encoding: 9562 9562 96
Width: 767
Flags: W
LayerCount: 2
Fore
SplineSet
128 820 m 1,0,-1
 128 128 l 1,1,-1
 788 128 l 5,2,-1
 788 256 l 1,3,-1
 256 256 l 1,4,-1
 256 820 l 1,5,-1
 128 820 l 1,0,-1
384 820 m 1,6,-1
 384 384 l 1,7,-1
 788 384 l 1,8,-1
 788 512 l 1,9,-1
 512 512 l 1,10,-1
 512 820 l 1,11,-1
 384 820 l 1,6,-1
EndSplineSet
Validated: 9
EndChar

StartChar: SF260000
Encoding: 9565 9565 97
Width: 767
Flags: W
LayerCount: 2
Fore
SplineSet
512 819 m 1,0,-1
 512 126 l 1,1,-1
 0 126 l 1,2,-1
 0 254 l 1,3,-1
 384 254 l 1,4,-1
 384 819 l 1,5,-1
 512 819 l 1,0,-1
256 819 m 1,6,-1
 256 382 l 1,7,-1
 0 382 l 1,8,-1
 0 510 l 1,9,-1
 128 510 l 1,10,-1
 128 819 l 1,11,-1
 256 819 l 1,6,-1
EndSplineSet
Validated: 1
EndChar

StartChar: SF390000
Encoding: 9556 9556 98
Width: 767
Flags: W
LayerCount: 2
Fore
SplineSet
128 -204 m 1,0,-1
 128 512 l 1,1,-1
 788 512 l 1,2,-1
 788 384 l 1,3,-1
 256 384 l 1,4,-1
 256 -204 l 1,5,-1
 128 -204 l 1,0,-1
384 -204 m 1,6,-1
 384 256 l 1,7,-1
 788 256 l 1,8,-1
 788 128 l 1,9,-1
 512 128 l 1,10,-1
 512 -204 l 1,11,-1
 384 -204 l 1,6,-1
EndSplineSet
Validated: 1
EndChar

StartChar: SF250000
Encoding: 9559 9559 99
Width: 767
Flags: W
LayerCount: 2
Fore
SplineSet
512 -204 m 1,0,-1
 512 512 l 1,1,-1
 0 512 l 1,2,-1
 0 384 l 1,3,-1
 384 384 l 1,4,-1
 384 -204 l 1,5,-1
 512 -204 l 1,0,-1
256 -204 m 1,6,-1
 256 256 l 1,7,-1
 0 256 l 1,8,-1
 0 128 l 1,9,-1
 128 128 l 1,10,-1
 128 -204 l 1,11,-1
 256 -204 l 1,6,-1
EndSplineSet
Validated: 9
EndChar

StartChar: plus
Encoding: 43 43 100
Width: 767
Flags: W
LayerCount: 2
Fore
SplineSet
384 0 m 5,0,-1
 384 256 l 5,1,-1
 640 256 l 5,2,-1
 640 384 l 5,3,-1
 384 384 l 5,4,-1
 384 640 l 5,5,-1
 256 640 l 5,6,-1
 256 384 l 5,7,-1
 0 384 l 5,8,-1
 0 256 l 5,9,-1
 256 256 l 5,10,-1
 256 0 l 5,11,-1
 384 0 l 5,0,-1
EndSplineSet
Validated: 9
EndChar

StartChar: parenleft
Encoding: 40 40 101
Width: 767
Flags: W
LayerCount: 2
Fore
SplineSet
256 512 m 5,0,-1
 256 640 l 5,1,-1
 384 640 l 5,2,-1
 384 512 l 5,3,-1
 256 512 l 5,0,-1
128 128 m 5,4,-1
 128 512 l 5,5,-1
 256 512 l 5,6,-1
 256 128 l 5,7,-1
 128 128 l 5,4,-1
256 0 m 5,8,-1
 256 128 l 5,9,-1
 384 128 l 5,10,-1
 384 0 l 5,11,-1
 256 0 l 5,8,-1
EndSplineSet
Validated: 5
EndChar

StartChar: parenright
Encoding: 41 41 102
Width: 767
Flags: W
LayerCount: 2
Fore
SplineSet
256 512 m 5,0,-1
 256 640 l 5,1,-1
 128 640 l 5,2,-1
 128 512 l 5,3,-1
 256 512 l 5,0,-1
384 128 m 5,4,-1
 384 512 l 5,5,-1
 256 512 l 5,6,-1
 256 128 l 5,7,-1
 384 128 l 5,4,-1
256 0 m 5,8,-1
 256 128 l 5,9,-1
 128 128 l 5,10,-1
 128 0 l 5,11,-1
 256 0 l 5,8,-1
EndSplineSet
Validated: 5
EndChar

StartChar: colon
Encoding: 58 58 103
Width: 255
Flags: W
LayerCount: 2
Fore
SplineSet
0 384 m 5,0,-1
 0 512 l 5,1,-1
 128 512 l 5,2,-1
 128 384 l 5,3,-1
 0 384 l 5,0,-1
0 0 m 5,4,-1
 0 128 l 5,5,-1
 128 128 l 5,6,-1
 128 0 l 5,7,-1
 0 0 l 5,4,-1
EndSplineSet
Validated: 1
EndChar

StartChar: H18533
Encoding: 9679 9679 104
Width: 767
Flags: W
LayerCount: 2
Fore
SplineSet
512 128 m 1,0,-1
 128 128 l 1,1,-1
 128 512 l 1,2,-1
 512 512 l 1,3,-1
 512 128 l 1,0,-1
EndSplineSet
Validated: 1
EndChar

StartChar: arrowup
Encoding: 8593 8593 105
Width: 767
Flags: W
LayerCount: 2
Fore
SplineSet
384 0 m 5,0,-1
 384 256 l 5,1,-1
 640 256 l 5,2,-1
 640 384 l 5,3,-1
 512 384 l 5,4,-1
 512 512 l 5,5,-1
 384 512 l 5,6,-1
 384 640 l 5,7,-1
 256 640 l 5,8,-1
 256 512 l 5,9,-1
 128 512 l 5,10,-1
 128 384 l 5,11,-1
 0 384 l 5,12,-1
 0 256 l 5,13,-1
 256 256 l 5,14,-1
 256 0 l 5,15,-1
 384 0 l 5,0,-1
EndSplineSet
Validated: 9
EndChar

StartChar: arrowdown
Encoding: 8595 8595 106
Width: 767
Flags: W
LayerCount: 2
Fore
SplineSet
384 640 m 5,0,-1
 384 384 l 5,1,-1
 640 384 l 5,2,-1
 640 256 l 5,3,-1
 512 256 l 5,4,-1
 512 128 l 5,5,-1
 384 128 l 5,6,-1
 384 0 l 5,7,-1
 256 0 l 5,8,-1
 256 128 l 5,9,-1
 128 128 l 5,10,-1
 128 256 l 5,11,-1
 0 256 l 5,12,-1
 0 384 l 5,13,-1
 256 384 l 5,14,-1
 256 640 l 5,15,-1
 384 640 l 5,0,-1
EndSplineSet
Validated: 1
EndChar

StartChar: bracketleft
Encoding: 91 91 107
Width: 639
Flags: W
LayerCount: 2
Fore
SplineSet
128 0 m 5,0,-1
 128 640 l 5,1,-1
 384 640 l 5,2,-1
 384 512 l 5,3,-1
 256 512 l 5,4,-1
 256 128 l 5,5,-1
 384 128 l 5,6,-1
 384 0 l 5,7,-1
 128 0 l 5,0,-1
EndSplineSet
Validated: 1
EndChar

StartChar: backslash
Encoding: 92 92 108
Width: 767
Flags: W
LayerCount: 2
Fore
SplineSet
128 512 m 5,0,-1
 128 640 l 5,1,-1
 0 640 l 5,2,-1
 0 512 l 5,3,-1
 128 512 l 5,0,-1
384 256 m 5,4,-1
 384 384 l 5,5,-1
 256 384 l 5,6,-1
 256 256 l 5,7,-1
 384 256 l 5,4,-1
512 128 m 5,8,-1
 512 256 l 5,9,-1
 384 256 l 5,10,-1
 384 128 l 5,11,-1
 512 128 l 5,8,-1
256 384 m 5,12,-1
 256 512 l 5,13,-1
 128 512 l 5,14,-1
 128 384 l 5,15,-1
 256 384 l 5,12,-1
640 0 m 5,16,-1
 640 128 l 5,17,-1
 512 128 l 5,18,-1
 512 0 l 5,19,-1
 640 0 l 5,16,-1
EndSplineSet
Validated: 5
EndChar

StartChar: bracketright
Encoding: 93 93 109
Width: 639
Flags: W
LayerCount: 2
Fore
SplineSet
384 0 m 5,0,-1
 384 640 l 5,1,-1
 128 640 l 5,2,-1
 128 512 l 5,3,-1
 256 512 l 5,4,-1
 256 128 l 5,5,-1
 128 128 l 5,6,-1
 128 0 l 5,7,-1
 384 0 l 5,0,-1
EndSplineSet
Validated: 9
EndChar

StartChar: bar
Encoding: 124 124 110
Width: 639
Flags: W
LayerCount: 2
Fore
SplineSet
256 0 m 1,0,-1
 256 640 l 1,1,-1
 384 640 l 1,2,-1
 384 0 l 1,3,-1
 256 0 l 1,0,-1
EndSplineSet
Validated: 1
EndChar

StartChar: uni2240
Encoding: 8768 8768 112
Width: 638
Flags: W
LayerCount: 2
Fore
SplineSet
256 256 m 5,0,-1
 256 384 l 5,1,-1
 128 384 l 5,2,-1
 128 512 l 5,3,-1
 256 512 l 5,4,-1
 256 384 l 5,5,-1
 384 384 l 5,6,-1
 384 256 l 5,7,-1
 256 256 l 5,0,-1
384 0 m 5,8,-1
 384 128 l 5,9,-1
 256 128 l 5,10,-1
 256 256 l 5,11,-1
 128 256 l 5,12,-1
 128 128 l 5,13,-1
 256 128 l 5,14,-1
 256 0 l 5,15,-1
 384 0 l 5,8,-1
EndSplineSet
EndChar

StartChar: shade
Encoding: 9618 9618 113
Width: 638
Flags: W
LayerCount: 2
Fore
SplineSet
640 768 m 1,0,-1
512 896 m 1,1,-1
640 640 m 1,2,-1
 640 768 l 1,3,-1
 512 768 l 1,4,-1
 512 640 l 1,5,-1
 640 640 l 1,2,-1
640 512 m 1,7,-1
640 384 m 1,8,-1
 512 384 l 1,9,-1
 512 512 l 1,10,-1
 640 512 l 1,11,-1
 640 384 l 1,8,-1
640 128 m 1,13,-1
 640 256 l 1,14,-1
 512 256 l 1,15,-1
 512 128 l 1,16,-1
 640 128 l 1,13,-1
384 896 m 1,18,-1
 512 896 l 1,19,-1
 512 768 l 1,20,-1
 384 768 l 1,21,-1
 384 896 l 1,18,-1
256 896 m 1,23,-1
512 512 m 1,24,-1
 512 640 l 1,25,-1
 384 640 l 1,26,-1
 384 768 l 1,27,-1
 256 768 l 1,28,-1
 256 640 l 1,29,-1
 384 640 l 1,30,-1
 384 512 l 1,31,-1
 512 512 l 1,24,-1
128 896 m 1,32,-1
 256 896 l 1,33,-1
 256 768 l 1,34,-1
 128 768 l 1,35,-1
 128 896 l 1,32,-1
256 512 m 1,37,-1
 256 640 l 1,38,-1
 128 640 l 1,39,-1
 128 768 l 1,40,-1
 0 768 l 1,41,-1
 0 640 l 1,42,-1
 128 640 l 1,43,-1
 128 512 l 1,44,-1
 256 512 l 1,37,-1
384 256 m 1,45,-1
 384 384 l 1,46,-1
 256 384 l 1,47,-1
 256 512 l 1,48,-1
 384 512 l 1,49,-1
 384 384 l 1,50,-1
 512 384 l 1,51,-1
 512 256 l 1,52,-1
 384 256 l 1,45,-1
512 0 m 1,53,-1
 512 128 l 1,54,-1
 384 128 l 1,55,-1
 384 256 l 1,56,-1
 256 256 l 1,57,-1
 256 128 l 1,58,-1
 384 128 l 1,59,-1
 384 0 l 1,60,-1
 512 0 l 1,53,-1
128 256 m 1,61,-1
 128 384 l 1,62,-1
 0 384 l 1,63,-1
 0 512 l 1,64,-1
 128 512 l 1,65,-1
 128 384 l 1,66,-1
 256 384 l 1,67,-1
 256 256 l 1,68,-1
 128 256 l 1,61,-1
256 0 m 1,69,-1
 256 128 l 1,70,-1
 128 128 l 1,71,-1
 128 256 l 1,72,-1
 0 256 l 1,73,-1
 0 128 l 1,74,-1
 128 128 l 1,75,-1
 128 0 l 1,76,-1
 256 0 l 1,69,-1
EndSplineSet
EndChar

StartChar: underscore
Encoding: 95 95 114
Width: 767
Flags: W
LayerCount: 2
Fore
SplineSet
0 -128 m 5,0,-1
 0 0 l 5,1,-1
 767 0 l 5,2,-1
 767 -128 l 5,3,-1
 0 -128 l 5,0,-1
EndSplineSet
EndChar

StartChar: less
Encoding: 60 60 115
Width: 767
Flags: W
LayerCount: 2
Fore
SplineSet
384 512 m 5,0,-1
 384 640 l 5,1,-1
 256 640 l 5,2,-1
 256 512 l 5,3,-1
 384 512 l 5,0,-1
128 256 m 5,4,-1
 128 384 l 5,5,-1
 0 384 l 5,6,-1
 0 256 l 5,7,-1
 128 256 l 5,4,-1
256 128 m 5,8,-1
 256 256 l 5,9,-1
 128 256 l 5,10,-1
 128 128 l 5,11,-1
 256 128 l 5,8,-1
256 384 m 5,12,-1
 256 512 l 5,13,-1
 128 512 l 5,14,-1
 128 384 l 5,15,-1
 256 384 l 5,12,-1
384 0 m 5,16,-1
 384 128 l 5,17,-1
 256 128 l 5,18,-1
 256 0 l 5,19,-1
 384 0 l 5,16,-1
EndSplineSet
EndChar

StartChar: greater
Encoding: 62 62 116
Width: 767
Flags: W
LayerCount: 2
Fore
SplineSet
0 512 m 5,0,-1
 0 640 l 5,1,-1
 128 640 l 5,2,-1
 128 512 l 5,3,-1
 0 512 l 5,0,-1
256 256 m 5,4,-1
 256 384 l 5,5,-1
 384 384 l 5,6,-1
 384 256 l 5,7,-1
 256 256 l 5,4,-1
128 128 m 5,8,-1
 128 256 l 5,9,-1
 256 256 l 5,10,-1
 256 128 l 5,11,-1
 128 128 l 5,8,-1
128 384 m 5,12,-1
 128 512 l 5,13,-1
 256 512 l 5,14,-1
 256 384 l 5,15,-1
 128 384 l 5,12,-1
0 0 m 5,16,-1
 0 128 l 5,17,-1
 128 128 l 5,18,-1
 128 0 l 5,19,-1
 0 0 l 5,16,-1
EndSplineSet
EndChar

StartChar: semicolon
Encoding: 59 59 117
Width: 255
Flags: W
LayerCount: 2
Fore
SplineSet
0 -128 m 1,0,-1
 0 0 l 1,1,-1
 128 0 l 1,2,-1
 128 -128 l 1,3,-1
 0 -128 l 1,0,-1
128 384 m 1,4,-1
 128 512 l 1,5,-1
 256 512 l 1,6,-1
 256 384 l 1,7,-1
 128 384 l 1,4,-1
128 0 m 1,8,-1
 128 128 l 1,9,-1
 256 128 l 1,10,-1
 256 0 l 1,11,-1
 128 0 l 1,8,-1
EndSplineSet
EndChar

StartChar: asciicircum
Encoding: 94 94 118
Width: 767
Flags: W
LayerCount: 2
Fore
SplineSet
256 512 m 5,0,-1
 256 640 l 5,1,-1
 128 640 l 5,2,-1
 128 512 l 5,3,-1
 256 512 l 5,0,-1
512 512 m 5,4,-1
 512 640 l 5,5,-1
 384 640 l 5,6,-1
 384 512 l 5,7,-1
 512 512 l 5,4,-1
640 384 m 5,8,-1
 640 512 l 5,9,-1
 512 512 l 5,10,-1
 512 384 l 5,11,-1
 640 384 l 5,8,-1
384 640 m 5,12,-1
 384 768 l 5,13,-1
 256 768 l 5,14,-1
 256 640 l 5,15,-1
 384 640 l 5,12,-1
128 384 m 5,16,-1
 128 512 l 5,17,-1
 0 512 l 5,18,-1
 0 384 l 5,19,-1
 128 384 l 5,16,-1
EndSplineSet
EndChar

StartChar: grave
Encoding: 96 96 119
Width: 768
Flags: W
LayerCount: 2
Fore
SplineSet
128 512 m 1,0,-1
 128 640 l 1,1,-1
 0 640 l 1,2,-1
 0 512 l 1,3,-1
 128 512 l 1,0,-1
256 384 m 1,4,-1
 256 512 l 1,5,-1
 128 512 l 1,6,-1
 128 384 l 1,7,-1
 256 384 l 1,4,-1
0 640 m 1,8,-1
EndSplineSet
EndChar

StartChar: braceleft
Encoding: 123 123 120
Width: 764
Flags: W
LayerCount: 2
Fore
SplineSet
384 128 m 1,0,-1
 384 0 l 1,1,-1
 128 0 l 1,2,-1
 128 256 l 1,3,-1
 0 256 l 1,4,-1
 0 384 l 1,5,-1
 128 384 l 1,6,-1
 128 640 l 1,7,-1
 384 640 l 1,8,-1
 384 512 l 1,9,-1
 256 512 l 1,10,-1
 256 128 l 1,11,-1
 384 128 l 1,0,-1
EndSplineSet
EndChar

StartChar: braceright
Encoding: 125 125 121
Width: 764
Flags: W
LayerCount: 2
Fore
SplineSet
0 128 m 5,0,-1
 0 0 l 5,1,-1
 256 0 l 5,2,-1
 256 256 l 5,3,-1
 384 256 l 5,4,-1
 384 384 l 5,5,-1
 256 384 l 5,6,-1
 256 640 l 5,7,-1
 0 640 l 5,8,-1
 0 512 l 5,9,-1
 128 512 l 5,10,-1
 128 128 l 5,11,-1
 0 128 l 5,0,-1
EndSplineSet
EndChar

StartChar: sigma1
Encoding: 962 962 122
Width: 639
Flags: W
LayerCount: 2
Fore
SplineSet
384 0 m 1,0,-1
 128 0 l 1,1,-1
 128 128 l 1,2,-1
 0 128 l 1,3,-1
 0 384 l 1,4,-1
 128 384 l 1,5,-1
 128 512 l 1,6,-1
 511 512 l 1,7,-1
 511 384 l 1,8,-1
 128 384 l 1,9,-1
 128 128 l 1,10,-1
 511 128 l 1,11,-1
 511 -128 l 1,12,-1
 384 -128 l 1,13,-1
 384 0 l 1,0,-1
EndSplineSet
EndChar

StartChar: section
Encoding: 167 167 123
Width: 639
Flags: W
LayerCount: 2
Fore
SplineSet
324.579 384 m 5,0,-1
 384 384 l 5,1,-1
 384 256 l 5,2,-1
 128 256 l 5,3,-1
 128 384 l 5,4,-1
 199 384 l 5,5,-1
 199 320 l 5,6,-1
 324.579 320 l 5,7,-1
 324.579 384 l 5,0,-1
128 128 m 5,8,-1
 384 128 l 5,9,-1
 384 0 l 5,10,-1
 128 0 l 5,11,-1
 128 128 l 5,8,-1
384 128 m 5,12,-1
 512 128 l 5,13,-1
 512 256 l 5,14,-1
 384 256 l 5,15,-1
 384 128 l 5,12,-1
0 384 m 5,16,-1
 0 512 l 5,17,-1
 128 512 l 5,18,-1
 128 640 l 5,19,-1
 384 640 l 5,20,-1
 384 512 l 5,21,-1
 128 512 l 5,22,-1
 128 448 l 5,23,-1
 384 448 l 5,24,-1
 384 384 l 5,25,-1
 0 384 l 5,16,-1
EndSplineSet
EndChar

StartChar: alpha
Encoding: 945 945 124
Width: 767
Flags: W
LayerCount: 2
Fore
SplineSet
512 384 m 1,0,-1
 512 512 l 1,1,-1
 640 512 l 1,2,-1
 640 384 l 1,3,-1
 512 384 l 1,0,-1
384 128 m 1,4,-1
 384 384 l 1,5,-1
 128 384 l 1,6,-1
 128 128 l 1,7,-1
 384 128 l 1,4,-1
639.341 126.512 m 1,8,-1
 640 0 l 1,9,-1
 128 0 l 1,10,-1
 128 128 l 1,11,-1
 0 128 l 1,12,-1
 0 384 l 1,13,-1
 128 384 l 1,14,-1
 128 512 l 1,15,-1
 384 512 l 1,16,-1
 384 384 l 1,17,-1
 512 384 l 1,18,-1
 513.341 126.512 l 1,19,-1
 639.341 126.512 l 1,8,-1
EndSplineSet
EndChar

StartChar: Lambda
Encoding: 923 923 125
Width: 767
Flags: W
LayerCount: 2
Fore
SplineSet
256 256 m 1,0,-1
 256 512 l 1,1,-1
 128 512 l 1,2,-1
 128 256 l 1,3,-1
 256 256 l 1,0,-1
512 256 m 1,4,-1
 512 512 l 1,5,-1
 384 512 l 1,6,-1
 384 256 l 1,7,-1
 512 256 l 1,4,-1
640 0 m 1,8,-1
 640 256 l 1,9,-1
 512 256 l 1,10,-1
 512 0 l 1,11,-1
 640 0 l 1,8,-1
384 512 m 1,12,-1
 384 640 l 1,13,-1
 256 640 l 1,14,-1
 256 512 l 1,15,-1
 384 512 l 1,12,-1
128 0 m 1,16,-1
 128 256 l 1,17,-1
 0 256 l 1,18,-1
 0 0 l 1,19,-1
 128 0 l 1,16,-1
EndSplineSet
EndChar

StartChar: block
Encoding: 9608 9608 126
Width: 1232
VWidth: 2048
Flags: WO
LayerCount: 2
Fore
SplineSet
-20 -512 m 1,0,-1
 -20 806 l 5,1,-1
 1252 806 l 5,2,-1
 1253 -512 l 1,3,-1
 -20 -512 l 1,0,-1
EndSplineSet
EndChar
